# AST/ASF file generated using VICON BodyLanguage
# -----------------------------------------------
:version 1.10
:name VICON
:units
  mass 1.0
  length 0.45
  angle deg
:documentation
   .ast/.asf automatically generated from VICON data using
   VICON BodyBuilder and BodyLanguage model FoxedUp or BRILLIANT.MOD
:root
   order TX TY TZ RX RY RZ
   axis XYZ
   position 0 0 0  
   orientation 0 0 0 
:bonedata
  begin
     id 1 
     name lhipjoint
     direction 0.650112 -0.723553 0.232005 
     length 2.45805 
     axis 0 0 0  XYZ
  end
  begin
     id 2 
     name lfemur
     direction 0.34202 -0.939693 0  
     length 7.00073  
     axis 0 0 20  XYZ
    dof rx ry rz
    limits (-160.0 20.0)
           (-70.0 70.0)
           (-60.0 70.0)
  end
  begin
     id 3 
     name ltibia
     direction 0.34202 -0.939693 0   
     length 7.8748   
     axis 0 0 20   XYZ
    dof rx
    limits (-10.0 170.0)
  end
  begin
     id 4 
     name lfoot
     direction 0.0542825 -0.14914 0.987325   
     length 1.75978   
     axis -90 7.62852e-016 20   XYZ
    dof rx rz
    limits (-45.0 90.0)
           (-70.0 20.0)
  end
  begin
     id 5 
     name ltoes
     direction 1.53509e-011 -4.21906e-011 1   
     length 0.893912   
     axis -90 7.62852e-016 20   XYZ
    dof rx
    limits (-90.0 20.0)
  end
  begin
     id 6 
     name rhipjoint
     direction -0.637897 -0.733345 0.235145   
     length 2.42522  
     axis 0 0 0  XYZ 
  end
  begin
     id 7 
     name rfemur
     direction -0.34202 -0.939693 0   
     length 7.02549   
     axis 0 0 -20   XYZ
    dof rx ry rz
    limits (-160.0 20.0)
           (-70.0 70.0)
           (-70.0 60.0)
  end
  begin
     id 8 
     name rtibia
     direction -0.34202 -0.939693 0   
     length 7.71512   
     axis 0 0 -20   XYZ
    dof rx
    limits (-10.0 170.0)
 end
 begin
     id 9 
     name rfoot
     direction -0.0822618 -0.226012 0.970645   
     length 1.90014  
     axis -90 -7.62852e-016 -20   XYZ
    dof rx rz
    limits (-45.0 90.0)
           (-20.0 70.0)
  end
  begin
     id 10 
     name rtoes
     direction -1.53542e-011 -4.21872e-011 1   
     length 0.957341   
     axis -90 -7.62852e-016 -20   XYZ
    dof rx
    limits (-90.0 20.0)
  end
  begin
     id 11 
     name lowerback
     direction -0.0022947 0.999774 -0.0211557   
     length 1.89909   
     axis 0 0 0   XYZ
    dof rx ry rz
    limits (-20.0 45.0)
           (-30.0 30.0)
           (-30.0 30.0)
  end
  begin
     id 12 
     name upperback
     direction 0.0107737 0.998635 0.0511027   
     length 1.8853   
     axis 0 0 0   XYZ
    dof rx ry rz
    limits (-20.0 45.0)
           (-30.0 30.0)
           (-30.0 30.0)
  end
  begin
     id 13 
     name thorax
     direction 0.011824 0.998136 0.0598754   
     length 1.88911   
     axis 0 0 0   XYZ
    dof rx ry rz
    limits (-20.0 45.0)
           (-30.0 30.0)
           (-30.0 30.0)
  end
  begin
     id 14 
     name lowerneck
     direction -0.0685355 0.990319 0.120714   
     length 1.91222   
     axis 0 0 0   XYZ
    dof rx ry rz
    limits (-20.0 45.0)
           (-30.0 30.0)
           (-30.0 30.0)
  end
  begin
     id 15 
     name upperneck
     direction 0.0886204 0.955665 -0.280805   
     length 1.92526   
     axis 0 0 0   XYZ
    dof rx ry rz
    limits (-20.0 45.0)
           (-30.0 30.0)
           (-30.0 30.0)
  end
  begin
     id 16
     name head
     direction 0.0233423 0.993502 -0.111393  
     length 1.96056  
     axis 0 0 0   XYZ
    dof rx ry rz
    limits (-20.0 45.0)
           (-30.0 30.0)
           (-30.0 30.0)
  end
  begin
     id 17 
     name lclavicle
     direction 0.941873 0.32922 0.0670041  
     length 3.31705  
     axis 0 0 0   XYZ
    dof ry rz
    limits (-20.0 10.0)
           (0.0 20.0)
  end
  begin
     id 18 
     name lhumerus
     direction 1 -4.4898e-011 3.38707e-028   
     length 5.29277   
     axis 180 -30 -90   XYZ
    dof rx ry rz
    limits (-60.0 90.0)
           (-90.0 90.0)
           (-90.0 90.0)
  end
  begin
     id 19
     name lradius
     direction 1 -4.48952e-011 1.63213e-028   
     length 2.85226   
     axis 180 -30 -90   XYZ
    dof rx
    limits (-10.0 170.0)
  end
  begin
     id 20
     name lwrist
     direction 1 -4.49001e-011 1.27856e-027   
     length 1.42613   
     axis -1.61767e-015 90 90   XYZ
    dof ry
    limits (-180.0 0.0)
 end
  begin
     id 21 
     name lhand
     direction 1 -4.48976e-011 2.55931e-027   
     length 0.602097   
     axis -1.63363e-015 90 90   XYZ
    dof rx rz
    limits (-90.0 90.0)
           (-45.0 45.0)
  end
  begin
     id 22 
     name lfingers
     direction 1 -4.48986e-011 5.11684e-027   
     length 0.485426   
     axis -3.26723e-015 90 90   XYZ
    dof rx
    limits (0.0 90.0)
  end
  begin
     id 23
     name lthumb
     direction 0.707107 -6.34915e-011 0.707107   
     length 0.696978   
     axis -90 45 -2.25915e-014   XYZ
    dof rx rz
    limits (-45.0 45.0)
           (-45.0 45.0)
  end
  begin
     id 24 
     name rclavicle
     direction -0.939974 0.327078 0.0973096   
     length 3.10337  
     axis 0 0 0   XYZ 
    dof ry rz
    limits (-10.0 20.0)
           (-20.0 0.0)
  end
  begin
     id 25 
     name rhumerus
     direction -1 -4.48975e-011 1.83745e-027  
     length 5.13304   
     axis 180 30 90   XYZ
    dof rx ry rz
    limits (-90.0 60.0)
           (-90.0 90.0)
           (-90.0 90.0)
  end
  begin
     id 26 
     name rradius
     direction -1 -4.48977e-011 7.1775e-029   
     length 2.74305   
     axis 180 30 90   XYZ
    dof rx
    limits (-10.0 170.0)
  end
  begin
     id 27 
     name rwrist
     direction -1 -4.48977e-011 1.27963e-027   
     length 1.37152   
     axis -1.61767e-015 -90 -90   XYZ
    dof ry
    limits (-180.0 0.0)
  end
  begin
     id 28
     name rhand
     direction -1 -4.4888e-011 2.56782e-027   
     length 0.767976   
     axis -1.63363e-015 -90 -90   XYZ
    dof rx rz
    limits (-90.0 90.0)
           (-45.0 45.0)
  end
  begin
     id 29
     name rfingers
     direction -1 -4.48947e-011 5.12384e-027   
     length 0.619162   
     axis -3.26723e-015 -90 -90   XYZ
    dof rx
    limits (0.0 90.0)
  end
  begin
     id 30
     name rthumb
     direction -0.707107 -6.34857e-011 0.707107   
     length 0.888997   
     axis -90 -45 2.25915e-014   XYZ
    dof rx rz
    limits (-45.0 45.0)
           (-45.0 45.0)
  end
:hierarchy
  begin
    root lhipjoint rhipjoint lowerback
    lhipjoint lfemur
    lfemur ltibia
    ltibia lfoot
    lfoot ltoes
    rhipjoint rfemur
    rfemur rtibia
    rtibia rfoot
    rfoot rtoes
    lowerback upperback
    upperback thorax
    thorax lowerneck lclavicle rclavicle
    lowerneck upperneck
    upperneck head
    lclavicle lhumerus
    lhumerus lradius
    lradius lwrist
    lwrist lhand lthumb
    lhand lfingers
    rclavicle rhumerus
    rhumerus rradius
    rradius rwrist
    rwrist rhand rthumb
    rhand rfingers
  end

#!OML:ASF F:\VICON\USERDATA\INSTALL\rory3\rory3.ASF
:FULLY-SPECIFIED
:DEGREES
1150
root 0.348724 17.0376 -1.2323 -2.9061 1.62247 -3.25388
lowerback 6.36179 4.79368 0.507731
upperback 8.91849 6.64724 -4.638
thorax 6.44033 3.56158 -5.17906
lowerneck 9.08758 -10.8451 -6.68261
upperneck 9.01518 -17.343 29.1833
head 4.34949 -8.54815 10.096
rclavicle -9.54166e-015 -3.02153e-014
rhumerus 71.7486 -5.54029 -109.314
rradius 5.67763
rwrist 19.687
rhand -14.2953 6.86169
rfingers 7.12502
rthumb 11.8444 -22.7833
lclavicle -9.54166e-015 -3.02153e-014
lhumerus 56.6003 -24.0006 108.344
lradius 17.2765
lwrist 5.46611
lhand -8.53837 29.2304
lfingers 7.12502
lthumb 17.3908 58.4724
rfemur -7.19871 4.20098 20.6127
rtibia 25.7087
rfoot -17.6296 -5.93307
rtoes -25.1712
lfemur -11.7061 -9.14973 -15.7072
ltibia 33.7438
lfoot -18.3536 3.28757
ltoes -17.2838
1151
root 0.347171 17.0377 -1.23143 -2.84864 1.62045 -3.63746
lowerback 6.278 4.7986 0.93651
upperback 8.89113 6.66229 -4.56091
thorax 6.50198 3.59433 -5.32819
lowerneck 9.12388 -10.8391 -6.62401
upperneck 8.94939 -17.3125 29.2094
head 4.31437 -8.53899 10.1005
rclavicle -7.63333e-014 3.97569e-014
rhumerus 71.7902 -5.6271 -109.406
rradius 5.64433
rwrist 19.7722
rhand -14.305 6.82953
rfingers 7.12502
rthumb 11.835 -22.816
lclavicle -7.63333e-014 3.97569e-014
lhumerus 56.5194 -24.0385 108.4
lradius 17.3215
lwrist 5.46847
lhand -8.40999 29.4146
lfingers 7.12502
lthumb 17.5143 58.6457
rfemur -7.25733 4.20214 21.044
rtibia 25.69
rfoot -17.589 -5.96119
rtoes -25.467
lfemur -11.8116 -9.10049 -15.2489
ltibia 33.7756
lfoot -18.3319 3.10723
ltoes -16.9675
1152
root 0.344671 17.0375 -1.23128 -2.94259 1.65068 -3.28934
lowerback 6.3832 4.82889 0.622926
upperback 8.93665 6.70031 -4.67536
thorax 6.47407 3.59888 -5.28339
lowerneck 9.11388 -10.8328 -6.53852
upperneck 8.90286 -17.2838 29.2197
head 4.28979 -8.52473 10.0909
rclavicle -1.59028e-015 -2.8625e-014
rhumerus 71.8783 -5.66137 -109.531
rradius 5.56262
rwrist 19.9536
rhand -14.4276 6.6808
rfingers 7.12502
rthumb 11.7168 -22.9715
lclavicle -1.59028e-015 -2.8625e-014
lhumerus 56.4868 -24.0972 108.392
lradius 17.351
lwrist 5.48247
lhand -8.31785 29.426
lfingers 7.12502
lthumb 17.603 58.6492
rfemur -7.16087 4.14013 20.6655
rtibia 25.728
rfoot -17.5976 -5.91314
rtoes -25.1309
lfemur -11.6595 -9.15175 -15.6577
ltibia 33.734
lfoot -18.2095 3.17867
ltoes -17.3487
1153
root 0.341891 17.0356 -1.232 -3.04935 1.67574 -2.9405
lowerback 6.53859 4.86735 0.316126
upperback 8.96891 6.74643 -4.79186
thorax 6.40558 3.60762 -5.24983
lowerneck 9.13823 -10.8551 -6.5407
upperneck 8.85671 -17.3116 29.2965
head 4.28522 -8.54362 10.1189
rclavicle 4.05521e-014 4.77083e-015
rhumerus 71.9984 -5.6753 -109.661
rradius 5.39013
rwrist 20.1338
rhand -14.6099 6.44651
rfingers 7.12502
rthumb 11.541 -23.2157
lclavicle 4.05521e-014 4.77083e-015
lhumerus 56.4732 -24.2074 108.324
lradius 17.3445
lwrist 5.59492
lhand -8.33071 29.4137
lfingers 7.12502
lthumb 17.5906 58.638
rfemur -7.07657 4.10314 20.2898
rtibia 25.8209
rfoot -17.701 -5.92171
rtoes -25.0865
lfemur -11.4782 -9.19603 -16.0673
ltibia 33.6447
lfoot -18.1169 3.31763
ltoes -17.9255
1154
root 0.340047 17.0369 -1.23199 -3.05122 1.69804 -2.81058
lowerback 6.52654 4.88313 0.166464
upperback 8.99608 6.76675 -4.81964
thorax 6.42961 3.60973 -5.19425
lowerneck 9.08133 -10.8863 -6.52729
upperneck 8.86705 -17.3635 29.3329
head 4.31188 -8.56285 10.1213
rclavicle -3.33958e-014 -9.54166e-015
rhumerus 71.9909 -5.75039 -109.731
rradius 5.5032
rwrist 20.2549
rhand -14.4995 6.40793
rfingers 7.12502
rthumb 11.6474 -23.2483
lclavicle -3.33958e-014 -9.54166e-015
lhumerus 56.5572 -24.3051 108.157
lradius 17.3481
lwrist 5.73584
lhand -8.29955 29.4091
lfingers 7.12502
lthumb 17.6206 58.6306
rfemur -7.1379 4.08935 20.1492
rtibia 25.9612
rfoot -17.7915 -5.94202
rtoes -25.3026
lfemur -11.4007 -9.22541 -16.2129
ltibia 33.5114
lfoot -18.0268 3.37686
ltoes -18.1649
